<svg width="737" height="427" viewBox="0 0 737 427" fill="none" xmlns="http://www.w3.org/2000/svg">
<rect width="737" height="427" fill="#1E1E1E"/>
<g clip-path="url(#clip0_0_1)">
<g filter="url(#filter0_d_0_1)">
<path d="M181.523 351.325C181.523 317.056 207.44 292.806 244.196 292.806C280.952 292.806 306.641 316.613 306.641 351.325V405.622H292.031V378.479C283.789 398.064 264.465 408.515 241.841 408.515C209.087 408.515 181.523 386.49 181.523 351.325ZM290.852 350.656C290.852 325.283 272.002 306.594 244.196 306.594C216.392 306.594 197.54 325.283 197.54 350.656C197.54 376.028 216.392 394.717 244.196 394.717C272.002 394.717 290.852 376.028 290.852 350.656Z" fill="url(#paint0_linear_0_1)"/>
<path d="M328.775 339.46C328.775 307.857 348.804 292.504 377.786 292.504C406.768 292.504 426.559 307.857 426.559 339.676V341.014H411.011V339.46C411.011 316.538 397.576 306.303 377.786 306.303C357.996 306.303 344.564 316.538 344.564 339.46V405.331H328.775V339.46Z" fill="url(#paint1_linear_0_1)"/>
<path d="M446.588 247.341H462.376V344.588L524.114 295.409H546.258L479.104 348.81L548.614 405.331H526.229L462.376 353.042V405.331H446.588V247.341Z" fill="url(#paint2_linear_0_1)"/>
<path d="M569.1 300.71H584.889V405.33H569.1V300.71Z" fill="url(#paint3_linear_0_1)"/>
<path d="M607.502 350.365C607.502 316.981 633.42 292.504 670.177 292.504C706.931 292.504 732.381 316.981 732.381 350.365V355.255H623.761C625.886 378.177 644.018 394.415 670.177 394.415C688.56 394.415 702.691 387.289 710.237 374.614H727.43C718.479 394.869 697.272 408.214 670.177 408.214C633.42 408.214 607.502 383.737 607.502 350.354V350.365ZM715.895 341.911C712.124 319.658 693.75 306.303 670.187 306.303C646.626 306.303 627.773 320.317 624.241 341.911H715.895Z" fill="url(#paint4_linear_0_1)"/>
<path d="M589.246 261.831C588.982 261.539 588.593 261.301 588.215 261.161C587.849 261.032 587.415 261.053 586.958 260.999C586.958 260.934 586.971 260.859 586.981 260.783C587.359 258.322 587.506 255.849 587.209 253.377C586.902 250.839 585.528 249.026 582.969 248.162C581.882 247.795 580.727 247.536 579.572 247.471C577.045 247.309 574.496 247.201 572.005 247.86C569.123 248.615 567.295 250.3 566.893 253.161C566.574 255.428 566.655 257.706 566.985 259.974C567.043 260.351 567.076 260.729 567.135 261.129C566.414 260.978 565.797 261.043 565.225 261.388C564.596 261.777 564.298 262.36 564.481 262.867C564.654 263.374 565.281 263.688 566.025 263.601C566.391 263.558 566.746 263.439 567.122 263.342C567.122 263.537 567.122 263.72 567.122 263.904C567.122 267.542 567.168 271.181 567.122 274.819C567.099 277.065 566.975 279.311 566.848 281.546C566.756 283.144 566.632 284.731 566.929 286.318C567.34 288.499 568.082 289.308 570.38 289.719C571.776 289.967 573.206 290.107 574.623 290.194C577.87 290.41 581.105 290.248 584.305 289.6C585.62 289.33 586.42 288.585 586.834 287.398C587.313 286.005 587.382 284.569 587.314 283.122C587.187 280.487 586.981 277.864 586.935 275.24C586.879 271.461 586.935 267.683 586.948 263.904C586.948 263.742 586.948 263.58 586.948 263.483C587.519 263.515 588.045 263.623 588.548 263.558C589.484 263.428 589.84 262.521 589.233 261.841L589.246 261.831ZM583.391 249.231C584.213 249.155 584.889 249.479 585.29 250.148C585.437 250.408 585.473 250.84 585.346 251.088C585.231 251.315 584.82 251.423 584.546 251.584C583.746 251.487 582.956 251.012 582.682 250.397C582.408 249.792 582.705 249.285 583.391 249.22V249.231ZM571.342 248.497C575.158 247.622 578.967 247.633 582.786 248.497C582.786 248.551 582.786 248.605 582.786 248.659C582.316 248.68 581.847 248.767 581.39 248.713C579.252 248.443 577.114 248.421 574.966 248.518C574.189 248.551 573.399 248.68 572.622 248.723C572.188 248.745 571.753 248.691 571.329 248.669C571.329 248.615 571.329 248.551 571.329 248.497H571.342ZM568.826 250.127C569.214 249.468 569.877 249.166 570.677 249.22C571.388 249.274 571.708 249.803 571.398 250.418C571.045 251.109 570.415 251.423 569.443 251.52C569.283 251.423 568.861 251.315 568.747 251.066C568.62 250.818 568.679 250.386 568.826 250.127ZM568.381 264.465C568.369 263.763 568.381 263.061 568.381 262.252C568.519 262.424 568.597 262.511 568.656 262.608C569.283 263.58 569.923 264.551 570.53 265.545C570.631 265.707 570.608 265.966 570.575 266.171C570.494 266.614 570.288 267.035 570.278 267.477C570.22 269.734 570.21 271.99 570.187 274.258C570.187 274.441 570.187 274.625 570.187 274.862C569.694 274.744 569.25 274.668 568.816 274.528C568.712 274.495 568.62 274.268 568.61 274.139C568.519 270.921 568.437 267.704 568.356 264.487L568.381 264.465ZM569.603 283.888C569.456 283.888 569.227 283.651 569.204 283.489C569.123 282.981 569.113 282.474 569.077 281.967C568.963 280.066 568.839 278.166 568.724 276.212H570.243C570.266 276.536 570.278 276.838 570.301 277.151C570.438 278.987 570.563 280.822 570.702 282.668C570.735 283.111 570.083 283.921 569.615 283.899L569.603 283.888ZM582.192 287.365C581.357 287.527 580.521 287.689 579.686 287.797C578.807 287.905 577.926 287.937 576.669 288.034C575.412 287.873 573.787 287.689 572.175 287.441C571.411 287.322 571.352 287.127 571.662 286.436C571.708 286.339 571.753 286.242 571.799 286.145C572.393 285.022 572.393 285.044 573.686 285.249C576.212 285.659 578.739 285.616 581.242 285.098C581.527 285.044 581.664 285.076 581.791 285.303C582.042 285.767 582.306 286.231 582.545 286.706C582.718 287.041 582.581 287.289 582.192 287.365ZM577.058 263.137C574.874 263.137 572.873 263.752 571.182 265.243C570.324 263.99 569.638 262.716 569.501 261.248C569.478 261.064 569.593 260.794 569.753 260.665C571.342 259.401 573.216 258.743 575.263 258.549C577.528 258.332 579.79 258.397 581.915 259.293C582.773 259.65 583.55 260.19 584.363 260.643C584.614 260.783 584.673 260.988 584.637 261.269C584.432 262.716 583.792 263.979 582.933 265.221C581.275 263.752 579.264 263.126 577.068 263.126L577.058 263.137ZM585.313 277.4C585.198 279.3 585.084 281.2 584.947 283.1C584.924 283.37 584.764 283.629 584.66 283.888C584.409 283.78 584.134 283.683 583.893 283.543C583.368 283.23 583.403 282.787 583.449 282.258C583.619 280.412 583.71 278.555 583.825 276.698C583.825 276.547 583.848 276.395 583.86 276.201H585.3C585.3 276.611 585.323 277.011 585.3 277.4H585.313ZM585.711 265.685C585.643 268.471 585.541 271.245 585.483 274.031C585.483 274.398 585.335 274.549 584.98 274.603C584.627 274.668 584.282 274.754 583.893 274.841C583.893 274.517 583.893 274.236 583.893 273.966C583.86 271.71 583.837 269.453 583.792 267.197C583.792 266.884 583.7 266.538 583.54 266.257C583.357 265.923 583.436 265.696 583.619 265.415C584.305 264.39 584.97 263.342 585.633 262.306C585.655 262.317 585.688 262.327 585.711 262.349C585.711 263.461 585.734 264.573 585.711 265.685Z" fill="url(#paint5_linear_0_1)"/>
</g>
</g>
<g clip-path="url(#clip1_0_1)">
<mask id="mask0_0_1" style="mask-type:luminance" maskUnits="userSpaceOnUse" x="10" y="0" width="380" height="427">
<path d="M389.02 0H10.8061V426.07H389.02V0Z" fill="white"/>
</mask>
<g mask="url(#mask0_0_1)">
<mask id="mask1_0_1" style="mask-type:luminance" maskUnits="userSpaceOnUse" x="10" y="0" width="379" height="427">
<path d="M10.8963 426.07C111.195 419.244 112.891 345.024 125.591 266.181C112.801 273.585 101.887 283.932 94.0219 296.555C89.6564 269.504 98.4776 241.423 120.558 212.204C100.083 215.328 83.3967 210.019 70.6067 196.259C81.7912 185.062 100.949 168.828 128.712 157.451C146.336 150.246 162.463 147.013 174.874 145.587C112.224 110.192 81.7912 90.6532 83.6853 86.9512C85.4893 83.3395 118.195 94.8246 181.693 121.497C144.911 89.6058 126.998 72.9198 128.134 71.5835C129.181 70.2472 147.004 82.4908 181.693 108.314C130.985 59.6288 107.75 32.5954 112.115 27.0876C118.086 19.5031 176.66 53.2723 288.054 128.341C348.341 120.757 379.063 119.619 380.091 124.729C380.758 127.853 370.331 133.452 348.612 141.433C329.941 150.535 302.918 166.39 276.292 192.773C255.998 212.89 236.569 232.249 241.692 245.341C248.998 263.851 305.588 269.63 343.308 244.493C383.879 217.441 386.531 164.982 388.046 148.458C395.947 66.9064 335.75 0.198639 254.32 0.198639H79.8068C56.8788 142.047 33.8424 284.004 10.8963 426.07Z" fill="white"/>
</mask>
<g mask="url(#mask1_0_1)">
<path d="M10.8963 0V426.07H389.02V0H10.8963Z" fill="url(#paint6_linear_0_1)"/>
</g>
</g>
</g>
<defs>
<filter id="filter0_d_0_1" x="177.523" y="247.341" width="558.859" height="169.174" filterUnits="userSpaceOnUse" color-interpolation-filters="sRGB">
<feFlood flood-opacity="0" result="BackgroundImageFix"/>
<feColorMatrix in="SourceAlpha" type="matrix" values="0 0 0 0 0 0 0 0 0 0 0 0 0 0 0 0 0 0 127 0" result="hardAlpha"/>
<feOffset dy="4"/>
<feGaussianBlur stdDeviation="2"/>
<feComposite in2="hardAlpha" operator="out"/>
<feColorMatrix type="matrix" values="0 0 0 0 0 0 0 0 0 0 0 0 0 0 0 0 0 0 0.25 0"/>
<feBlend mode="normal" in2="BackgroundImageFix" result="effect1_dropShadow_0_1"/>
<feBlend mode="normal" in="SourceGraphic" in2="effect1_dropShadow_0_1" result="shape"/>
</filter>
<linearGradient id="paint0_linear_0_1" x1="244.082" y1="292.806" x2="244.082" y2="408.515" gradientUnits="userSpaceOnUse">
<stop stop-color="#94B5B2"/>
<stop offset="0.0001" stop-color="#6C8482"/>
<stop offset="1" stop-color="#82DC10"/>
</linearGradient>
<linearGradient id="paint1_linear_0_1" x1="377.667" y1="292.504" x2="377.667" y2="405.331" gradientUnits="userSpaceOnUse">
<stop stop-color="#414F4E"/>
<stop offset="0.0001" stop-color="#94B5B2"/>
<stop offset="1" stop-color="#82DC10"/>
</linearGradient>
<linearGradient id="paint2_linear_0_1" x1="497.602" y1="247.341" x2="497.602" y2="405.331" gradientUnits="userSpaceOnUse">
<stop stop-color="white"/>
<stop offset="0.0001" stop-color="#94B5B2"/>
<stop offset="1" stop-color="#82DC10"/>
</linearGradient>
<linearGradient id="paint3_linear_0_1" x1="576.994" y1="300.71" x2="576.994" y2="405.33" gradientUnits="userSpaceOnUse">
<stop stop-color="#94B5B2"/>
<stop offset="1" stop-color="#82DC10"/>
</linearGradient>
<linearGradient id="paint4_linear_0_1" x1="669.943" y1="292.504" x2="669.943" y2="408.214" gradientUnits="userSpaceOnUse">
<stop stop-color="#94B5B2"/>
<stop offset="1" stop-color="#82DC10"/>
</linearGradient>
<linearGradient id="paint5_linear_0_1" x1="576.981" y1="247.348" x2="576.981" y2="290.284" gradientUnits="userSpaceOnUse">
<stop stop-color="#79A293"/>
<stop offset="1" stop-color="#82DC10"/>
</linearGradient>
<linearGradient id="paint6_linear_0_1" x1="298.311" y1="-53.5381" x2="40.1799" y2="430.197" gradientUnits="userSpaceOnUse">
<stop stop-color="#94B5B2"/>
<stop offset="1" stop-color="#82DC10"/>
</linearGradient>
<clipPath id="clip0_0_1">
<rect width="736.36" height="197.598" fill="white" transform="translate(0 213.035)"/>
</clipPath>
<clipPath id="clip1_0_1">
<rect width="378.214" height="426.07" fill="white" transform="translate(10.8061)"/>
</clipPath>
</defs>
</svg>
